<?xml version="1.0" standalone="no"?>
<!DOCTYPE svg PUBLIC "-//W3C//DTD SVG 1.1//EN" "http://www.w3.org/Graphics/SVG/1.1/DTD/svg11.dtd">
<!-- Created with WaveDrom -->
<svg id="svgcontent_0" xmlns="http://www.w3.org/2000/svg" xmlns:xlink="http://www.w3.org/1999/xlink" height="136" viewBox="0 0 450 136" width="450" overflow="hidden"><style type="text/css">text{font-size:11pt;font-style:normal;font-variant:normal;font-weight:normal;font-stretch:normal;text-align:center;fill-opacity:1;font-family:Helvetica}.muted{fill:#aaa}.warning{fill:#f6b900}.error{fill:#f60000}.info{fill:#0041c4}.success{fill:#00ab00}.h1{font-size:33pt;font-weight:bold}.h2{font-size:27pt;font-weight:bold}.h3{font-size:20pt;font-weight:bold}.h4{font-size:14pt;font-weight:bold}.h5{font-size:11pt;font-weight:bold}.h6{font-size:8pt;font-weight:bold}.s1{fill:none;stroke:#000000;stroke-width:1;stroke-linecap:round;stroke-linejoin:miter;stroke-miterlimit:4;stroke-opacity:1;stroke-dasharray:none}.s2{fill:none;stroke:#000000;stroke-width:0.5;stroke-linecap:round;stroke-linejoin:miter;stroke-miterlimit:4;stroke-opacity:1;stroke-dasharray:none}.s3{color:#000000;fill:none;stroke:#000000;stroke-width:1;stroke-linecap:round;stroke-linejoin:miter;stroke-miterlimit:4;stroke-opacity:1;stroke-dasharray:1, 3;stroke-dashoffset:0;marker:none;visibility:visible;display:inline;overflow:visible;enable-background:accumulate}.s4{color:#000000;fill:none;stroke:#000000;stroke-width:1;stroke-linecap:round;stroke-linejoin:miter;stroke-miterlimit:4;stroke-opacity:1;stroke-dasharray:none;stroke-dashoffset:0;marker:none;visibility:visible;display:inline;overflow:visible}.s5{fill:#ffffff;stroke:none}.s6{color:#000000;fill:#ffffb4;fill-opacity:1;fill-rule:nonzero;stroke:none;stroke-width:1px;marker:none;visibility:visible;display:inline;overflow:visible;enable-background:accumulate}.s7{color:#000000;fill:#ffe0b9;fill-opacity:1;fill-rule:nonzero;stroke:none;stroke-width:1px;marker:none;visibility:visible;display:inline;overflow:visible;enable-background:accumulate}.s8{color:#000000;fill:#b9e0ff;fill-opacity:1;fill-rule:nonzero;stroke:none;stroke-width:1px;marker:none;visibility:visible;display:inline;overflow:visible;enable-background:accumulate}.s9{fill:#000000;fill-opacity:1;stroke:none}.s10{color:#000000;fill:#ffffff;fill-opacity:1;fill-rule:nonzero;stroke:none;stroke-width:1px;marker:none;visibility:visible;display:inline;overflow:visible;enable-background:accumulate}</style><defs><g id="socket"><rect y="15" x="4" height="20" width="10"></rect></g><g id="pclk"><path d="M 0,20 0,0 10,0" class="s1"></path></g><g id="nclk"><path d="m 0,0 0,20 10,0" class="s1"></path></g><g id="000"><path d="m 0,20 10,0" class="s1"></path></g><g id="0m0"><path d="m 0,20 1,0 3,-10 3,10 3,0" class="s1"></path></g><g id="0m1"><path d="M 0,20 1,20 7,0 10,0" class="s1"></path></g><g id="0mx"><path d="M 1,20 7,0 10,0" class="s1"></path><path d="M 10,15 5,20" class="s2"></path><path d="M 10,10 2,18" class="s2"></path><path d="M 10,5 4,11" class="s2"></path><path d="M 10,0 6,4" class="s2"></path><path d="m 0,20 10,0" class="s1"></path></g><g id="0md"><path d="m 1,20 9,0" class="s3"></path><path d="m 0,20 1,0" class="s1"></path></g><g id="0mu"><path d="m 0,20 1,0 C 2,13 5,0 10,0" class="s1"></path></g><g id="0mz"><path d="m 0,20 1,0 C 3,14 7,10 10,10" class="s1"></path></g><g id="111"><path d="M 0,0 10,0" class="s1"></path></g><g id="1m0"><path d="m 0,0 1,0 6,20 3,0" class="s1"></path></g><g id="1m1"><path d="M 0,0 1,0 4,10 7,0 10,0" class="s1"></path></g><g id="1mx"><path d="m 1,0 6,20 3,0" class="s1"></path><path d="M 0,0 10,0" class="s1"></path><path d="M 10,15 6.5,18.5" class="s2"></path><path d="M 10,10 5.5,14.5" class="s2"></path><path d="M 10,5 4.5,10.5" class="s2"></path><path d="M 10,0 3,7" class="s2"></path><path d="M 2,3 5,0" class="s2"></path></g><g id="1md"><path d="m 0,0 1,0 c 1,7 4,20 9,20" class="s1"></path></g><g id="1mu"><path d="M 0,0 1,0" class="s1"></path><path d="m 1,0 9,0" class="s3"></path></g><g id="1mz"><path d="m 0,0 1,0 c 2,4 6,10 9,10" class="s1"></path></g><g id="xxx"><path d="m 0,20 10,0" class="s1"></path><path d="M 0,0 10,0" class="s1"></path><path d="M 0,5 5,0" class="s2"></path><path d="M 0,10 10,0" class="s2"></path><path d="M 0,15 10,5" class="s2"></path><path d="M 0,20 10,10" class="s2"></path><path d="m 5,20 5,-5" class="s2"></path></g><g id="xm0"><path d="M 0,0 1,0 7,20" class="s1"></path><path d="m 0,20 10,0" class="s1"></path><path d="M 0,5 2,3" class="s2"></path><path d="M 0,10 3,7" class="s2"></path><path d="M 0,15 4,11" class="s2"></path><path d="M 0,20 5,15" class="s2"></path><path d="M 5,20 6,19" class="s2"></path></g><g id="xm1"><path d="M 0,0 10,0" class="s1"></path><path d="M 0,20 1,20 7,0" class="s1"></path><path d="M 0,5 5,0" class="s2"></path><path d="M 0,10 6,4" class="s2"></path><path d="M 0,15 3,12" class="s2"></path><path d="M 0,20 1,19" class="s2"></path></g><g id="xmx"><path d="m 0,20 10,0" class="s1"></path><path d="M 0,0 10,0" class="s1"></path><path d="M 0,5 5,0" class="s2"></path><path d="M 0,10 10,0" class="s2"></path><path d="M 0,15 10,5" class="s2"></path><path d="M 0,20 10,10" class="s2"></path><path d="m 5,20 5,-5" class="s2"></path></g><g id="xmd"><path d="m 0,0 1,0 c 1,7 4,20 9,20" class="s1"></path><path d="m 0,20 10,0" class="s1"></path><path d="M 0,5 1.5,3.5" class="s2"></path><path d="M 0,10 2.5,7.5" class="s2"></path><path d="M 0,15 3.5,11.5" class="s2"></path><path d="M 0,20 5,15" class="s2"></path><path d="M 5,20 7,18" class="s2"></path></g><g id="xmu"><path d="M 0,0 10,0" class="s1"></path><path d="m 0,20 1,0 C 2,13 5,0 10,0" class="s1"></path><path d="M 0,5 5,0" class="s2"></path><path d="M 0,10 5,5" class="s2"></path><path d="M 0,15 2,13" class="s2"></path><path d="M 0,20 1,19" class="s2"></path></g><g id="xmz"><path d="m 0,0 1,0 c 2,6 6,10 9,10" class="s1"></path><path d="m 0,20 1,0 C 3,14 7,10 10,10" class="s1"></path><path d="M 0,5 2,3" class="s2"></path><path d="M 0,10 4,6" class="s2"></path><path d="m 0,15.5 6,-7" class="s2"></path><path d="M 0,20 1,19" class="s2"></path></g><g id="ddd"><path d="m 0,20 10,0" class="s3"></path></g><g id="dm0"><path d="m 0,20 7,0" class="s3"></path><path d="m 7,20 3,0" class="s1"></path></g><g id="dm1"><path d="M 0,20 1,20 7,0 10,0" class="s1"></path></g><g id="dmx"><path d="M 1,20 7,0 10,0" class="s1"></path><path d="M 10,15 5,20" class="s2"></path><path d="M 10,10 1.5,18.5" class="s2"></path><path d="M 10,5 4,11" class="s2"></path><path d="M 10,0 6,4" class="s2"></path><path d="m 0,20 10,0" class="s1"></path></g><g id="dmd"><path d="m 0,20 10,0" class="s3"></path></g><g id="dmu"><path d="m 0,20 1,0 C 2,13 5,0 10,0" class="s1"></path></g><g id="dmz"><path d="m 0,20 1,0 C 3,14 7,10 10,10" class="s1"></path></g><g id="uuu"><path d="M 0,0 10,0" class="s3"></path></g><g id="um0"><path d="m 0,0 1,0 6,20 3,0" class="s1"></path></g><g id="um1"><path d="M 0,0 7,0" class="s3"></path><path d="m 7,0 3,0" class="s1"></path></g><g id="umx"><path d="M 1.4771574,0 7,20 l 3,0" class="s1"></path><path d="M 0,0 10,0" class="s1"></path><path d="M 10,15 6.5,18.5" class="s2"></path><path d="M 10,10 5.5,14.5" class="s2"></path><path d="M 10,5 4.5,10.5" class="s2"></path><path d="M 10,0 3.5,6.5" class="s2"></path><path d="M 2.463621,2.536379 5,0" class="s2"></path></g><g id="umd"><path d="m 0,0 1,0 c 1,7 4,20 9,20" class="s1"></path></g><g id="umu"><path d="M 0,0 10,0" class="s3"></path></g><g id="umz"><path d="m 0,0 1,0 c 2,6 6,10 9,10" class="s4"></path></g><g id="zzz"><path d="m 0,10 10,0" class="s1"></path></g><g id="zm0"><path d="m 0,10 1,0 4,10 5,0" class="s1"></path></g><g id="zm1"><path d="M 0,10 1,10 5,0 10,0" class="s1"></path></g><g id="zmx"><path d="m 1,10 4,10 5,0" class="s1"></path><path d="M 0,10 1,10 5,0 10,0" class="s1"></path><path d="M 10,15 5,20" class="s2"></path><path d="M 10,10 4,16" class="s2"></path><path d="M 10,5 2.5,12.5" class="s2"></path><path d="M 10,0 2,8" class="s2"></path></g><g id="zmd"><path d="m 0,10 1,0 c 2,6 6,10 9,10" class="s1"></path></g><g id="zmu"><path d="m 0,10 1,0 C 3,4 7,0 10,0" class="s1"></path></g><g id="zmz"><path d="m 0,10 10,0" class="s1"></path></g><g id="gap"><path d="m 7,-2 -4,0 c -5,0 -5,24 -10,24 l 4,0 C 2,22 2,-2 7,-2 z" class="s5"></path><path d="M -7,22 C -2,22 -2,-2 3,-2" class="s1"></path><path d="M -3,22 C 2,22 2,-2 7,-2" class="s1"></path></g><g id="0mv-3"><path d="m 7,0 3,0 0,20 -9,0 z" class="s6"></path><path d="M 1,20 7,0 10,0" class="s1"></path><path d="m 0,20 10,0" class="s1"></path></g><g id="1mv-3"><path d="m 1,0 9,0 0,20 -3,0 z" class="s6"></path><path d="m 1,0 6,20 3,0" class="s1"></path><path d="M 0,0 10,0" class="s1"></path></g><g id="xmv-3"><path d="M 7,0 10,0 10,20 7,20 4,10 z" class="s6"></path><path d="M 0,20 1,20 7,0 10,0" class="s1"></path><path d="m 0,0 1,0 6,20 3,0" class="s1"></path><path d="M 0,5 2,3" class="s2"></path><path d="M 0,10 3,7" class="s2"></path><path d="M 0,15 3,12" class="s2"></path><path d="M 0,20 1,19" class="s2"></path></g><g id="dmv-3"><path d="m 7,0 3,0 0,20 -9,0 z" class="s6"></path><path d="M 1,20 7,0 10,0" class="s1"></path><path d="m 0,20 10,0" class="s1"></path></g><g id="umv-3"><path d="m 1,0 9,0 0,20 -3,0 z" class="s6"></path><path d="m 1,0 6,20 3,0" class="s1"></path><path d="M 0,0 10,0" class="s1"></path></g><g id="zmv-3"><path d="M 5,0 10,0 10,20 5,20 1,10 z" class="s6"></path><path d="m 1,10 4,10 5,0" class="s1"></path><path d="M 0,10 1,10 5,0 10,0" class="s1"></path></g><g id="vvv-3"><path d="M 10,20 0,20 0,0 10,0" class="s6"></path><path d="m 0,20 10,0" class="s1"></path><path d="M 0,0 10,0" class="s1"></path></g><g id="vm0-3"><path d="m 0,20 0,-20 1.000687,-0.00391 6,20" class="s6"></path><path d="m 0,0 1.000687,-0.00391 6,20" class="s1"></path><path d="m 0,20 10.000687,-0.0039" class="s1"></path></g><g id="vm1-3"><path d="M 0,0 0,20 1,20 7,0" class="s6"></path><path d="M 0,0 10,0" class="s1"></path><path d="M 0,20 1,20 7,0" class="s1"></path></g><g id="vmx-3"><path d="M 0,0 0,20 1,20 4,10 1,0" class="s6"></path><path d="m 0,0 1,0 6,20 3,0" class="s1"></path><path d="M 0,20 1,20 7,0 10,0" class="s1"></path><path d="M 10,15 6.5,18.5" class="s2"></path><path d="M 10,10 5.5,14.5" class="s2"></path><path d="M 10,5 4,11" class="s2"></path><path d="M 10,0 6,4" class="s2"></path></g><g id="vmd-3"><path d="m 0,0 0,20 10,0 C 5,20 2,7 1,0" class="s6"></path><path d="m 0,0 1,0 c 1,7 4,20 9,20" class="s1"></path><path d="m 0,20 10,0" class="s1"></path></g><g id="vmu-3"><path d="m 0,0 0,20 1,0 C 2,13 5,0 10,0" class="s6"></path><path d="m 0,20 1,0 C 2,13 5,0 10,0" class="s1"></path><path d="M 0,0 10,0" class="s1"></path></g><g id="vmz-3"><path d="M 0,0 1,0 C 3,6 7,10 10,10 7,10 3,14 1,20 L 0,20" class="s6"></path><path d="m 0,0 1,0 c 2,6 6,10 9,10" class="s1"></path><path d="m 0,20 1,0 C 3,14 7,10 10,10" class="s1"></path></g><g id="vmv-3-3"><path d="M 7,0 10,0 10,20 7,20 4,10 z" class="s6"></path><path d="M 1,0 0,0 0,20 1,20 4,10 z" class="s6"></path><path d="m 0,0 1,0 6,20 3,0" class="s1"></path><path d="M 0,20 1,20 7,0 10,0" class="s1"></path></g><g id="vmv-3-4"><path d="M 7,0 10,0 10,20 7,20 4,10 z" class="s7"></path><path d="M 1,0 0,0 0,20 1,20 4,10 z" class="s6"></path><path d="m 0,0 1,0 6,20 3,0" class="s1"></path><path d="M 0,20 1,20 7,0 10,0" class="s1"></path></g><g id="vmv-3-5"><path d="M 7,0 10,0 10,20 7,20 4,10 z" class="s8"></path><path d="M 1,0 0,0 0,20 1,20 4,10 z" class="s6"></path><path d="m 0,0 1,0 6,20 3,0" class="s1"></path><path d="M 0,20 1,20 7,0 10,0" class="s1"></path></g><g id="vmv-4-3"><path d="M 7,0 10,0 10,20 7,20 4,10 z" class="s6"></path><path d="M 1,0 0,0 0,20 1,20 4,10 z" class="s7"></path><path d="m 0,0 1,0 6,20 3,0" class="s1"></path><path d="M 0,20 1,20 7,0 10,0" class="s1"></path></g><g id="vmv-4-4"><path d="M 7,0 10,0 10,20 7,20 4,10 z" class="s7"></path><path d="M 1,0 0,0 0,20 1,20 4,10 z" class="s7"></path><path d="m 0,0 1,0 6,20 3,0" class="s1"></path><path d="M 0,20 1,20 7,0 10,0" class="s1"></path></g><g id="vmv-4-5"><path d="M 7,0 10,0 10,20 7,20 4,10 z" class="s8"></path><path d="M 1,0 0,0 0,20 1,20 4,10 z" class="s7"></path><path d="m 0,0 1,0 6,20 3,0" class="s1"></path><path d="M 0,20 1,20 7,0 10,0" class="s1"></path></g><g id="vmv-5-3"><path d="M 7,0 10,0 10,20 7,20 4,10 z" class="s6"></path><path d="M 1,0 0,0 0,20 1,20 4,10 z" class="s8"></path><path d="m 0,0 1,0 6,20 3,0" class="s1"></path><path d="M 0,20 1,20 7,0 10,0" class="s1"></path></g><g id="vmv-5-4"><path d="M 7,0 10,0 10,20 7,20 4,10 z" class="s7"></path><path d="M 1,0 0,0 0,20 1,20 4,10 z" class="s8"></path><path d="m 0,0 1,0 6,20 3,0" class="s1"></path><path d="M 0,20 1,20 7,0 10,0" class="s1"></path></g><g id="vmv-5-5"><path d="M 7,0 10,0 10,20 7,20 4,10 z" class="s8"></path><path d="M 1,0 0,0 0,20 1,20 4,10 z" class="s8"></path><path d="m 0,0 1,0 6,20 3,0" class="s1"></path><path d="M 0,20 1,20 7,0 10,0" class="s1"></path></g><g id="0mv-4"><path d="m 7,0 3,0 0,20 -9,0 z" class="s7"></path><path d="M 1,20 7,0 10,0" class="s1"></path><path d="m 0,20 10,0" class="s1"></path></g><g id="1mv-4"><path d="m 1,0 9,0 0,20 -3,0 z" class="s7"></path><path d="m 1,0 6,20 3,0" class="s1"></path><path d="M 0,0 10,0" class="s1"></path></g><g id="xmv-4"><path d="M 7,0 10,0 10,20 7,20 4,10 z" class="s7"></path><path d="M 0,20 1,20 7,0 10,0" class="s1"></path><path d="m 0,0 1,0 6,20 3,0" class="s1"></path><path d="M 0,5 2,3" class="s2"></path><path d="M 0,10 3,7" class="s2"></path><path d="M 0,15 4,11" class="s2"></path><path d="M 0,20 1,19" class="s2"></path></g><g id="dmv-4"><path d="m 7,0 3,0 0,20 -9,0 z" class="s7"></path><path d="M 1,20 7,0 10,0" class="s1"></path><path d="m 0,20 10,0" class="s1"></path></g><g id="umv-4"><path d="m 1,0 9,0 0,20 -3,0 z" class="s7"></path><path d="m 1,0 6,20 3,0" class="s1"></path><path d="M 0,0 10,0" class="s1"></path></g><g id="zmv-4"><path d="M 5,0 10,0 10,20 5,20 1,10 z" class="s7"></path><path d="m 1,10 4,10 5,0" class="s1"></path><path d="M 0,10 1,10 5,0 10,0" class="s1"></path></g><g id="0mv-5"><path d="m 7,0 3,0 0,20 -9,0 z" class="s8"></path><path d="M 1,20 7,0 10,0" class="s1"></path><path d="m 0,20 10,0" class="s1"></path></g><g id="1mv-5"><path d="m 1,0 9,0 0,20 -3,0 z" class="s8"></path><path d="m 1,0 6,20 3,0" class="s1"></path><path d="M 0,0 10,0" class="s1"></path></g><g id="xmv-5"><path d="M 7,0 10,0 10,20 7,20 4,10 z" class="s8"></path><path d="M 0,20 1,20 7,0 10,0" class="s1"></path><path d="m 0,0 1,0 6,20 3,0" class="s1"></path><path d="M 0,5 2,3" class="s2"></path><path d="M 0,10 3,7" class="s2"></path><path d="M 0,15 4,11" class="s2"></path><path d="M 0,20 1,19" class="s2"></path></g><g id="dmv-5"><path d="m 7,0 3,0 0,20 -9,0 z" class="s8"></path><path d="M 1,20 7,0 10,0" class="s1"></path><path d="m 0,20 10,0" class="s1"></path></g><g id="umv-5"><path d="m 1,0 9,0 0,20 -3,0 z" class="s8"></path><path d="m 1,0 6,20 3,0" class="s1"></path><path d="M 0,0 10,0" class="s1"></path></g><g id="zmv-5"><path d="M 5,0 10,0 10,20 5,20 1,10 z" class="s8"></path><path d="m 1,10 4,10 5,0" class="s1"></path><path d="M 0,10 1,10 5,0 10,0" class="s1"></path></g><g id="vvv-4"><path d="M 10,20 0,20 0,0 10,0" class="s7"></path><path d="m 0,20 10,0" class="s1"></path><path d="M 0,0 10,0" class="s1"></path></g><g id="vm0-4"><path d="M 0,20 0,0 1,0 7,20" class="s7"></path><path d="M 0,0 1,0 7,20" class="s1"></path><path d="m 0,20 10,0" class="s1"></path></g><g id="vm1-4"><path d="M 0,0 0,20 1,20 7,0" class="s7"></path><path d="M 0,0 10,0" class="s1"></path><path d="M 0,20 1,20 7,0" class="s1"></path></g><g id="vmx-4"><path d="M 0,0 0,20 1,20 4,10 1,0" class="s7"></path><path d="m 0,0 1,0 6,20 3,0" class="s1"></path><path d="M 0,20 1,20 7,0 10,0" class="s1"></path><path d="M 10,15 6.5,18.5" class="s2"></path><path d="M 10,10 5.5,14.5" class="s2"></path><path d="M 10,5 4,11" class="s2"></path><path d="M 10,0 6,4" class="s2"></path></g><g id="vmd-4"><path d="m 0,0 0,20 10,0 C 5,20 2,7 1,0" class="s7"></path><path d="m 0,0 1,0 c 1,7 4,20 9,20" class="s1"></path><path d="m 0,20 10,0" class="s1"></path></g><g id="vmu-4"><path d="m 0,0 0,20 1,0 C 2,13 5,0 10,0" class="s7"></path><path d="m 0,20 1,0 C 2,13 5,0 10,0" class="s1"></path><path d="M 0,0 10,0" class="s1"></path></g><g id="vmz-4"><path d="M 0,0 1,0 C 3,6 7,10 10,10 7,10 3,14 1,20 L 0,20" class="s7"></path><path d="m 0,0 1,0 c 2,6 6,10 9,10" class="s1"></path><path d="m 0,20 1,0 C 3,14 7,10 10,10" class="s1"></path></g><g id="vvv-5"><path d="M 10,20 0,20 0,0 10,0" class="s8"></path><path d="m 0,20 10,0" class="s1"></path><path d="M 0,0 10,0" class="s1"></path></g><g id="vm0-5"><path d="M 0,20 0,0 1,0 7,20" class="s8"></path><path d="M 0,0 1,0 7,20" class="s1"></path><path d="m 0,20 10,0" class="s1"></path></g><g id="vm1-5"><path d="M 0,0 0,20 1,20 7,0" class="s8"></path><path d="M 0,0 10,0" class="s1"></path><path d="M 0,20 1,20 7,0" class="s1"></path></g><g id="vmx-5"><path d="M 0,0 0,20 1,20 4,10 1,0" class="s8"></path><path d="m 0,0 1,0 6,20 3,0" class="s1"></path><path d="M 0,20 1,20 7,0 10,0" class="s1"></path><path d="M 10,15 6.5,18.5" class="s2"></path><path d="M 10,10 5.5,14.5" class="s2"></path><path d="M 10,5 4,11" class="s2"></path><path d="M 10,0 6,4" class="s2"></path></g><g id="vmd-5"><path d="m 0,0 0,20 10,0 C 5,20 2,7 1,0" class="s8"></path><path d="m 0,0 1,0 c 1,7 4,20 9,20" class="s1"></path><path d="m 0,20 10,0" class="s1"></path></g><g id="vmu-5"><path d="m 0,0 0,20 1,0 C 2,13 5,0 10,0" class="s8"></path><path d="m 0,20 1,0 C 2,13 5,0 10,0" class="s1"></path><path d="M 0,0 10,0" class="s1"></path></g><g id="vmz-5"><path d="M 0,0 1,0 C 3,6 7,10 10,10 7,10 3,14 1,20 L 0,20" class="s8"></path><path d="m 0,0 1,0 c 2,6 6,10 9,10" class="s1"></path><path d="m 0,20 1,0 C 3,14 7,10 10,10" class="s1"></path></g><g id="Pclk"><path d="M -3,12 0,3 3,12 C 1,11 -1,11 -3,12 z" class="s9"></path><path d="M 0,20 0,0 10,0" class="s1"></path></g><g id="Nclk"><path d="M -3,8 0,17 3,8 C 1,9 -1,9 -3,8 z" class="s9"></path><path d="m 0,0 0,20 10,0" class="s1"></path></g><g id="vvv-2"><path d="M 10,20 0,20 0,0 10,0" class="s10"></path><path d="m 0,20 10,0" class="s1"></path><path d="M 0,0 10,0" class="s1"></path></g><g id="vm0-2"><path d="m 0,20 0,-20 1.000687,-0.00391 5,20" class="s10"></path><path d="m 0,0 1.000687,-0.00391 6,20" class="s1"></path><path d="m 0,20 10.000687,-0.0039" class="s1"></path></g><g id="vm1-2"><path d="M 0,0 0,20 3,20 9,0" class="s10"></path><path d="M 0,0 10,0" class="s1"></path><path d="M 0,20 1,20 7,0" class="s1"></path></g><g id="vmx-2"><path d="M 0,0 0,20 1,20 4,10 1,0" class="s10"></path><path d="m 0,0 1,0 6,20 3,0" class="s1"></path><path d="M 0,20 1,20 7,0 10,0" class="s1"></path><path d="M 10,15 6.5,18.5" class="s2"></path><path d="M 10,10 5.5,14.5" class="s2"></path><path d="M 10,5 4,11" class="s2"></path><path d="M 10,0 6,4" class="s2"></path></g><g id="vmd-2"><path d="m 0,0 0,20 10,0 C 5,20 2,7 1,0" class="s10"></path><path d="m 0,0 1,0 c 1,7 4.0217106,19.565788 9,20" class="s1"></path><path d="m 0,20 10,0" class="s1"></path></g><g id="vmu-2"><path d="m 0,0 0,20 1,0 C 2,13 5,0 10,0" class="s10"></path><path d="m 0,20 1,0 C 2,13 5,0 10,0" class="s1"></path><path d="M 0,0 10,0" class="s1"></path></g><g id="vmz-2"><path d="M 0,0 1,0 C 3,6 7,10 10,10 7,10 3,14 1,20 L 0,20" class="s10"></path><path d="m 0,0 1,0 c 2,6 6,10 9,10" class="s1"></path><path d="m 0,20 1,0 C 3,14 7,10 10,10" class="s1"></path></g><g id="0mv-2"><path d="m 7,0 3,0 0,20 -9,0 z" class="s10"></path><path d="M 1,20 7,0 10,0" class="s1"></path><path d="m 0,20 10,0" class="s1"></path></g><g id="1mv-2"><path d="m 1,0 9,0 0,20 -3,0 z" class="s10"></path><path d="m 1,0 6,20 3,0" class="s1"></path><path d="M 0,0 10,0" class="s1"></path></g><g id="xmv-2"><path d="M 7,0 10,0 10,20 7,20 4,10 z" class="s10"></path><path d="M 0,20 1,20 7,0 10,0" class="s1"></path><path d="m 0,0 1,0 6,20 3,0" class="s1"></path><path d="M 0,5 2,3" class="s2"></path><path d="M 0,10 3,7" class="s2"></path><path d="M 0,15 4,11" class="s2"></path><path d="M 0,20 1,19" class="s2"></path></g><g id="dmv-2"><path d="m 7,0 3,0 0,20 -9,0 z" class="s10"></path><path d="M 1,20 7,0 10,0" class="s1"></path><path d="m 0,20 10,0" class="s1"></path></g><g id="umv-2"><path d="m 1,0 9,0 0,20 -3,0 z" class="s10"></path><path d="m 1,0 6,20 3,0" class="s1"></path><path d="M 0,0 10,0" class="s1"></path></g><g id="zmv-2"><path d="M 5,0 10,0 10,20 5,20 1,10 z" class="s10"></path><path d="m 1,10 4,10 5,0" class="s1"></path><path d="M 0,10 1,10 5,0 10,0" class="s1"></path></g><g id="vmv-3-2"><path d="M 7,0 10,0 10,20 7,20 4,10 z" class="s10"></path><path d="M 1,0 0,0 0,20 1,20 4,10 z" class="s6"></path><path d="m 0,0 1,0 6,20 3,0" class="s1"></path><path d="M 0,20 1,20 7,0 10,0" class="s1"></path></g><g id="vmv-4-2"><path d="M 7,0 10,0 10,20 7,20 4,10 z" class="s10"></path><path d="M 1,0 0,0 0,20 1,20 4,10 z" class="s7"></path><path d="m 0,0 1,0 6,20 3,0" class="s1"></path><path d="M 0,20 1,20 7,0 10,0" class="s1"></path></g><g id="vmv-5-2"><path d="M 7,0 10,0 10,20 7,20 4,10 z" class="s10"></path><path d="M 1,0 0,0 0,20 1,20 4,10 z" class="s8"></path><path d="m 0,0 1,0 6,20 3,0" class="s1"></path><path d="M 0,20 1,20 7,0 10,0" class="s1"></path></g><g id="vmv-2-3"><path d="M 7,0 10,0 10,20 7,20 4,10 z" class="s6"></path><path d="M 1,0 0,0 0,20 1,20 4,10 z" class="s10"></path><path d="m 0,0 1,0 6,20 3,0" class="s1"></path><path d="M 0,20 1,20 7,0 10,0" class="s1"></path></g><g id="vmv-2-4"><path d="M 7,0 10,0 10,20 7,20 4,10 z" class="s7"></path><path d="M 1,0 0,0 0,20 1,20 4,10 z" class="s10"></path><path d="m 0,0 1,0 6,20 3,0" class="s1"></path><path d="M 0,20 1,20 7,0 10,0" class="s1"></path></g><g id="vmv-2-5"><path d="M 7,0 10,0 10,20 7,20 4,10 z" class="s8"></path><path d="M 1,0 0,0 0,20 1,20 4,10 z" class="s10"></path><path d="m 0,0 1,0 6,20 3,0" class="s1"></path><path d="M 0,20 1,20 7,0 10,0" class="s1"></path></g><g id="vmv-2-2"><path d="M 7,0 10,0 10,20 7,20 4,10 z" class="s10"></path><path d="M 1,0 0,0 0,20 1,20 4,10 z" class="s10"></path><path d="m 0,0 1,0 6,20 3,0" class="s1"></path><path d="M 0,20 1,20 7,0 10,0" class="s1"></path></g><marker id="arrowhead" style="fill: #0041c4; " markerHeight="7" markerWidth="10" markerUnits="strokeWidth" viewBox="0 -4 11 8" refX="15" refY="0" orient="auto"><path d="M0 -4 11 0 0 4z"></path></marker><marker id="arrowtail" style="fill: #0041c4; " markerHeight="7" markerWidth="10" markerUnits="strokeWidth" viewBox="-11 -4 11 8" refX="-15" refY="0" orient="auto"><path d="M0 -4 -11 0 0 4z"></path></marker></defs><g id="waves_0"><g id="lanes_0" transform="translate(120.5, 46.5)"><g id="gmarks_0"><path id="gmark_0_0" d="m 0,0 0,90" style="stroke: #888888; stroke-width: 0.5px; stroke-dasharray: 1px, 3px; "></path><path id="gmark_1_0" d="m 20,0 0,90" style="stroke: #888888; stroke-width: 0.5px; stroke-dasharray: 1px, 3px; "></path><path id="gmark_2_0" d="m 40,0 0,90" style="stroke: #888888; stroke-width: 0.5px; stroke-dasharray: 1px, 3px; "></path><path id="gmark_3_0" d="m 60,0 0,90" style="stroke: #888888; stroke-width: 0.5px; stroke-dasharray: 1px, 3px; "></path><path id="gmark_4_0" d="m 80,0 0,90" style="stroke: #888888; stroke-width: 0.5px; stroke-dasharray: 1px, 3px; "></path><path id="gmark_5_0" d="m 100,0 0,90" style="stroke: #888888; stroke-width: 0.5px; stroke-dasharray: 1px, 3px; "></path><path id="gmark_6_0" d="m 120,0 0,90" style="stroke: #888888; stroke-width: 0.5px; stroke-dasharray: 1px, 3px; "></path><path id="gmark_7_0" d="m 140,0 0,90" style="stroke: #888888; stroke-width: 0.5px; stroke-dasharray: 1px, 3px; "></path><path id="gmark_8_0" d="m 160,0 0,90" style="stroke: #888888; stroke-width: 0.5px; stroke-dasharray: 1px, 3px; "></path><path id="gmark_9_0" d="m 180,0 0,90" style="stroke: #888888; stroke-width: 0.5px; stroke-dasharray: 1px, 3px; "></path><path id="gmark_10_0" d="m 200,0 0,90" style="stroke: #888888; stroke-width: 0.5px; stroke-dasharray: 1px, 3px; "></path><path id="gmark_11_0" d="m 220,0 0,90" style="stroke: #888888; stroke-width: 0.5px; stroke-dasharray: 1px, 3px; "></path><path id="gmark_12_0" d="m 240,0 0,90" style="stroke: #888888; stroke-width: 0.5px; stroke-dasharray: 1px, 3px; "></path><path id="gmark_13_0" d="m 260,0 0,90" style="stroke: #888888; stroke-width: 0.5px; stroke-dasharray: 1px, 3px; "></path><path id="gmark_14_0" d="m 280,0 0,90" style="stroke: #888888; stroke-width: 0.5px; stroke-dasharray: 1px, 3px; "></path><path id="gmark_15_0" d="m 300,0 0,90" style="stroke: #888888; stroke-width: 0.5px; stroke-dasharray: 1px, 3px; "></path><path id="gmark_16_0" d="m 320,0 0,90" style="stroke: #888888; stroke-width: 0.5px; stroke-dasharray: 1px, 3px; "></path><text x="160" y="-13" text-anchor="middle" fill="#000" xml:space="preserve"><tspan>Sequence chart</tspan></text></g><g id="wavelane_0_0" transform="translate(0,5)"><text x="-10" y="15" class="info" text-anchor="end" xml:space="preserve"><tspan>0 code</tspan></text><g id="wavelane_draw_0_0" transform="translate(0, 0)"><use href="#000" transform="translate(0)"></use><use href="#000" transform="translate(10)"></use><use href="#0m1" transform="translate(20)"></use><use href="#111" transform="translate(30)"></use><use href="#111" transform="translate(40)"></use><use href="#111" transform="translate(50)"></use><use href="#111" transform="translate(60)"></use><use href="#111" transform="translate(70)"></use><use href="#111" transform="translate(80)"></use><use href="#111" transform="translate(90)"></use><use href="#111" transform="translate(100)"></use><use href="#111" transform="translate(110)"></use><use href="#111" transform="translate(120)"></use><use href="#111" transform="translate(130)"></use><use href="#111" transform="translate(140)"></use><use href="#111" transform="translate(150)"></use><use href="#1m0" transform="translate(160)"></use><use href="#000" transform="translate(170)"></use><use href="#000" transform="translate(180)"></use><use href="#000" transform="translate(190)"></use><use href="#000" transform="translate(200)"></use><use href="#000" transform="translate(210)"></use><use href="#000" transform="translate(220)"></use><use href="#000" transform="translate(230)"></use><use href="#0m1" transform="translate(240)"></use><use href="#111" transform="translate(250)"></use><use href="#1mx" transform="translate(260)"></use><use href="#xxx" transform="translate(270)"></use><use href="#xmx" transform="translate(280)"></use><use href="#xxx" transform="translate(290)"></use><use href="#xmx" transform="translate(300)"></use><use href="#xxx" transform="translate(310)"></use></g></g><g id="wavelane_1_0" transform="translate(0,35)"><text x="-10" y="15" class="info" text-anchor="end" xml:space="preserve"><tspan>1 code</tspan></text><g id="wavelane_draw_1_0" transform="translate(0, 0)"><use href="#000" transform="translate(0)"></use><use href="#000" transform="translate(10)"></use><use href="#0m1" transform="translate(20)"></use><use href="#111" transform="translate(30)"></use><use href="#111" transform="translate(40)"></use><use href="#111" transform="translate(50)"></use><use href="#111" transform="translate(60)"></use><use href="#111" transform="translate(70)"></use><use href="#111" transform="translate(80)"></use><use href="#111" transform="translate(90)"></use><use href="#111" transform="translate(100)"></use><use href="#111" transform="translate(110)"></use><use href="#111" transform="translate(120)"></use><use href="#111" transform="translate(130)"></use><use href="#1m0" transform="translate(140)"></use><use href="#000" transform="translate(150)"></use><use href="#000" transform="translate(160)"></use><use href="#000" transform="translate(170)"></use><use href="#000" transform="translate(180)"></use><use href="#000" transform="translate(190)"></use><use href="#000" transform="translate(200)"></use><use href="#000" transform="translate(210)"></use><use href="#000" transform="translate(220)"></use><use href="#000" transform="translate(230)"></use><use href="#000" transform="translate(240)"></use><use href="#000" transform="translate(250)"></use><use href="#0m1" transform="translate(260)"></use><use href="#111" transform="translate(270)"></use><use href="#1mx" transform="translate(280)"></use><use href="#xxx" transform="translate(290)"></use><use href="#xmx" transform="translate(300)"></use><use href="#xxx" transform="translate(310)"></use></g></g><g id="wavelane_2_0" transform="translate(0,65)"><text x="-10" y="15" class="info" text-anchor="end" xml:space="preserve"><tspan>Reset code</tspan></text><g id="wavelane_draw_2_0" transform="translate(0, 0)"><use href="#111" transform="translate(0)"></use><use href="#111" transform="translate(10)"></use><use href="#1m0" transform="translate(20)"></use><use href="#000" transform="translate(30)"></use><use href="#000" transform="translate(40)"></use><use href="#000" transform="translate(50)"></use><use href="#000" transform="translate(60)"></use><use href="#000" transform="translate(70)"></use><use href="#000" transform="translate(80)"></use><use href="#000" transform="translate(90)"></use><use href="#000" transform="translate(100)"></use><use href="#000" transform="translate(110)"></use><use href="#000" transform="translate(120)"></use><use href="#000" transform="translate(130)"></use><use href="#000" transform="translate(140)"></use><use href="#000" transform="translate(150)"></use><use href="#000" transform="translate(160)"></use><use href="#000" transform="translate(170)"></use><use href="#000" transform="translate(180)"></use><use href="#000" transform="translate(190)"></use><use href="#000" transform="translate(200)"></use><use href="#000" transform="translate(210)"></use><use href="#000" transform="translate(220)"></use><use href="#000" transform="translate(230)"></use><use href="#000" transform="translate(240)"></use><use href="#000" transform="translate(250)"></use><use href="#000" transform="translate(260)"></use><use href="#000" transform="translate(270)"></use><use href="#000" transform="translate(280)"></use><use href="#000" transform="translate(290)"></use><use href="#0m1" transform="translate(300)"></use><use href="#111" transform="translate(310)"></use></g></g><g id="wavearcs_0"><path id="gmark_A_B" d="m 24,15 70,0 0,0 70,0" style="marker-end:url(#arrowhead);marker-start:url(#arrowtail);stroke:#0041c4;stroke-width:1;fill:none"></path><rect height="9" style="fill: #ffffff; " width="20" x="84" y="10"></rect><text style="font-size: 10px; " text-anchor="middle" xml:space="preserve" x="94" y="18"><tspan>T0H</tspan></text><path id="gmark_B_C" d="m 164,15 40,0 0,0 40,0" style="marker-end:url(#arrowhead);marker-start:url(#arrowtail);stroke:#0041c4;stroke-width:1;fill:none"></path><rect height="9" style="fill: #ffffff; " width="18" x="195" y="10"></rect><text style="font-size: 10px; " text-anchor="middle" xml:space="preserve" x="204" y="18"><tspan>T0L</tspan></text><path id="gmark_D_E" d="m 24,45 60,0 0,0 60,0" style="marker-end:url(#arrowhead);marker-start:url(#arrowtail);stroke:#0041c4;stroke-width:1;fill:none"></path><rect height="9" style="fill: #ffffff; " width="20" x="74" y="40"></rect><text style="font-size: 10px; " text-anchor="middle" xml:space="preserve" x="84" y="48"><tspan>T1H</tspan></text><path id="gmark_E_F" d="m 144,45 60,0 0,0 60,0" style="marker-end:url(#arrowhead);marker-start:url(#arrowtail);stroke:#0041c4;stroke-width:1;fill:none"></path><rect height="9" style="fill: #ffffff; " width="18" x="195" y="40"></rect><text style="font-size: 10px; " text-anchor="middle" xml:space="preserve" x="204" y="48"><tspan>T1L</tspan></text><path id="gmark_G_H" d="m 24,75 140,0 0,0 140,0" style="marker-end:url(#arrowhead);marker-start:url(#arrowtail);stroke:#0041c4;stroke-width:1;fill:none"></path><rect height="9" style="fill: #ffffff; " width="28" x="150" y="70"></rect><text style="font-size: 10px; " text-anchor="middle" xml:space="preserve" x="164" y="78"><tspan>Treset</tspan></text></g><g id="wavegaps_0"><g id="wavegap_0_0" transform="translate(0,5)"></g><g id="wavegap_1_0" transform="translate(0,35)"></g><g id="wavegap_2_0" transform="translate(0,65)"><use href="#gap" transform="translate(230)"></use></g></g></g><g id="groups_0"><g><path id="group_0_0" d="m 35.5,49.5 c -3,0 -5,2 -5,5 l 0,44 c 0,3 2,5 5,5" style="stroke: #0041c4; stroke-width: 1px; fill: none; "></path><g transform="translate(25,76)"><g transform="rotate(270)"><text text-anchor="middle" class="info" xml:space="preserve"><tspan>Data</tspan></text></g></g><path id="group_1_0" d="m 35.5,109.5 c -3,0 -5,2 -5,5 l 0,14 c 0,3 2,5 5,5" style="stroke: #0041c4; stroke-width: 1px; fill: none; "></path><g transform="translate(25,121)"><g transform="rotate(270)"><text text-anchor="middle" class="info" xml:space="preserve"><tspan>Ctrl</tspan></text></g></g></g></g></g></svg>